<svg xmlns="http://www.w3.org/2000/svg" width="1560" height="960" viewBox="0 0 1560 960" font-family="Segoe UI,Calibri,DejaVu Sans,sans-serif">
<defs>
 <marker id="ap" markerWidth="11" markerHeight="11" refX="10" refY="3.6" orient="auto">
   <path d="M0,0 L10,3.6 L0,7.2" fill="none" stroke="#000000" stroke-width="1.2"/></marker>
 <marker id="all" markerWidth="12" markerHeight="12" refX="11" refY="4" orient="auto">
   <path d="M0,0 L11,4 L0,8 z" fill="#FFFFFF" stroke="#000000" stroke-width="1.1"/></marker>
 <marker id="asol" markerWidth="10" markerHeight="10" refX="9" refY="3.4" orient="auto">
   <path d="M0,0 L9,3.4 L0,6.8 z" fill="#000000"/></marker>
 <marker id="rombo" markerWidth="14" markerHeight="10" refX="0" refY="5" orient="auto">
   <path d="M0,5 L7,1 L14,5 L7,9 z" fill="#FFFFFF" stroke="#000000" stroke-width="1"/></marker>
</defs>
<rect width="1560" height="960" fill="#FFFFFF"/>
<text x="780.0" y="36.3" font-size="18" fill="#101010" font-weight="bold" text-anchor="middle">DIAGRAMA DE CLASES — Modelo de dominio de SGIT-CCTV</text><text x="780.0" y="58.0" font-size="11.5" fill="#5A6570" font-weight="normal" text-anchor="middle">Extracto de los 78 modelos del esquema · las claves y cardinalidades son las reales del sistema</text><rect x="40" y="110" width="235" height="173" fill="#E8F3FF" stroke="#000000" stroke-width="1.4"/><line x1="40" y1="132" x2="275" y2="132" stroke="#000000" stroke-width="1.2"/><text x="157.5" y="125.2" font-size="12.0" fill="#101010" font-weight="bold" text-anchor="middle">Location</text><text x="47" y="146" font-size="10.5" fill="#101010">- id : UUID</text><text x="47" y="161" font-size="10.5" fill="#101010">- code : String  «único»</text><text x="47" y="176" font-size="10.5" fill="#101010">- name : String</text><text x="47" y="191" font-size="10.5" fill="#101010">- type : LocationType</text><text x="47" y="206" font-size="10.5" fill="#101010">- criticidadProduccion : Enum</text><text x="47" y="221" font-size="10.5" fill="#101010">- riesgoPersonas : Boolean?</text><text x="47" y="236" font-size="10.5" fill="#101010">- ambiente : Ambiente</text><line x1="40" y1="245" x2="275" y2="245" stroke="#000000" stroke-width="1.2"/><text x="47" y="259" font-size="10.5" fill="#101010">+ arbolDePlanta()</text><text x="47" y="274" font-size="10.5" fill="#101010">+ trenAlQuePertenece()</text><rect x="330" y="110" width="255" height="203" fill="#FFF9D6" stroke="#000000" stroke-width="1.4"/><line x1="330" y1="132" x2="585" y2="132" stroke="#000000" stroke-width="1.2"/><text x="457.5" y="125.2" font-size="12.0" fill="#101010" font-weight="bold" text-anchor="middle">Asset</text><text x="337" y="146" font-size="10.5" fill="#101010">- id : UUID</text><text x="337" y="161" font-size="10.5" fill="#101010">- assetCode : String «único»</text><text x="337" y="176" font-size="10.5" fill="#101010">- type : AssetType</text><text x="337" y="191" font-size="10.5" fill="#101010">- brand / model / serial</text><text x="337" y="206" font-size="10.5" fill="#101010">- status : AssetStatus</text><text x="337" y="221" font-size="10.5" fill="#101010">- locationId : FK → Location</text><text x="337" y="236" font-size="10.5" fill="#101010">- impactoOperacional : Int?</text><text x="337" y="251" font-size="10.5" fill="#101010">- medioAcceso : Enum</text><line x1="330" y1="260" x2="585" y2="260" stroke="#000000" stroke-width="1.2"/><text x="337" y="274" font-size="10.5" fill="#101010">+ criticidadABC() : A|B|C</text><text x="337" y="289" font-size="10.5" fill="#101010">+ estadoEfectivo()</text><text x="337" y="304" font-size="10.5" fill="#101010">+ generarQR()</text><rect x="640" y="110" width="255" height="218" fill="#FFF0E6" stroke="#000000" stroke-width="1.4"/><line x1="640" y1="132" x2="895" y2="132" stroke="#000000" stroke-width="1.2"/><text x="767.5" y="125.2" font-size="12.0" fill="#101010" font-weight="bold" text-anchor="middle">Incident</text><text x="647" y="146" font-size="10.5" fill="#101010">- id : UUID</text><text x="647" y="161" font-size="10.5" fill="#101010">- code : String «INC-AAAA-NNNN»</text><text x="647" y="176" font-size="10.5" fill="#101010">- title : String</text><text x="647" y="191" font-size="10.5" fill="#101010">- category : IncidentCategory</text><text x="647" y="206" font-size="10.5" fill="#101010">- categoriasExtra : String[]</text><text x="647" y="221" font-size="10.5" fill="#101010">- priority : Priority</text><text x="647" y="236" font-size="10.5" fill="#101010">- status : IncidentStatus</text><text x="647" y="251" font-size="10.5" fill="#101010">- occurredAt / reportedAt / resolvedAt</text><text x="647" y="266" font-size="10.5" fill="#101010">- reportedById : FK → User</text><text x="647" y="281" font-size="10.5" fill="#101010">- assetId : FK → Asset</text><line x1="640" y1="290" x2="895" y2="290" stroke="#000000" stroke-width="1.2"/><text x="647" y="304" font-size="10.5" fill="#101010">+ resolverConFirma()</text><text x="647" y="319" font-size="10.5" fill="#101010">+ convertirEnOM()</text><rect x="950" y="110" width="270" height="248" fill="#EAF7E4" stroke="#000000" stroke-width="1.4"/><line x1="950" y1="132" x2="1220" y2="132" stroke="#000000" stroke-width="1.2"/><text x="1085.0" y="125.2" font-size="12.0" fill="#101010" font-weight="bold" text-anchor="middle">WorkOrder</text><text x="957" y="146" font-size="10.5" fill="#101010">- id : UUID</text><text x="957" y="161" font-size="10.5" fill="#101010">- code : String «OM-AAAA-NNNN»</text><text x="957" y="176" font-size="10.5" fill="#101010">- type : WorkOrderType</text><text x="957" y="191" font-size="10.5" fill="#101010">- status : WorkOrderStatus</text><text x="957" y="206" font-size="10.5" fill="#101010">- activity : String</text><text x="957" y="221" font-size="10.5" fill="#101010">- scheduledDate / startedAt / closedAt</text><text x="957" y="236" font-size="10.5" fill="#101010">- assetId : FK → Asset</text><text x="957" y="251" font-size="10.5" fill="#101010">- incidentId : FK → Incident</text><text x="957" y="266" font-size="10.5" fill="#101010">- technicianId : FK → User</text><text x="957" y="281" font-size="10.5" fill="#101010">- openedById / closedById : FK → User</text><line x1="950" y1="290" x2="1220" y2="290" stroke="#000000" stroke-width="1.2"/><text x="957" y="304" font-size="10.5" fill="#101010">+ arrancarConFirma()</text><text x="957" y="319" font-size="10.5" fill="#101010">+ registrarAvance()</text><text x="957" y="334" font-size="10.5" fill="#101010">+ cerrarConFirma()</text><text x="957" y="349" font-size="10.5" fill="#101010">+ informePDF()</text><rect x="950" y="520" width="270" height="135" fill="#EAF7E4" stroke="#000000" stroke-width="1.4"/><line x1="950" y1="542" x2="1220" y2="542" stroke="#000000" stroke-width="1.2"/><text x="1085.0" y="535.2" font-size="12.0" fill="#101010" font-weight="bold" text-anchor="middle">WorkOrderProgress</text><text x="957" y="556" font-size="10.5" fill="#101010">- id : UUID</text><text x="957" y="571" font-size="10.5" fill="#101010">- workOrderId : FK → WorkOrder</text><text x="957" y="586" font-size="10.5" fill="#101010">- note : String</text><text x="957" y="601" font-size="10.5" fill="#101010">- symptomCode / rootCauseCode</text><text x="957" y="616" font-size="10.5" fill="#101010">- actionCode</text><text x="957" y="631" font-size="10.5" fill="#101010">- reportedById : FK → User</text><text x="957" y="646" font-size="10.5" fill="#101010">- reportedAt : DateTime</text><rect x="1280" y="110" width="245" height="173" fill="#F3E8FF" stroke="#000000" stroke-width="1.4"/><line x1="1280" y1="132" x2="1525" y2="132" stroke="#000000" stroke-width="1.2"/><text x="1402.5" y="125.2" font-size="12.0" fill="#101010" font-weight="bold" text-anchor="middle">User</text><text x="1287" y="146" font-size="10.5" fill="#101010">- id : UUID</text><text x="1287" y="161" font-size="10.5" fill="#101010">- email : String «único»</text><text x="1287" y="176" font-size="10.5" fill="#101010">- fullName : String</text><text x="1287" y="191" font-size="10.5" fill="#101010">- passwordHash : Argon2</text><text x="1287" y="206" font-size="10.5" fill="#101010">- roleId : FK → Role</text><text x="1287" y="221" font-size="10.5" fill="#101010">- active : Boolean</text><text x="1287" y="236" font-size="10.5" fill="#101010">- permisosVersion : Int</text><line x1="1280" y1="245" x2="1525" y2="245" stroke="#000000" stroke-width="1.2"/><text x="1287" y="259" font-size="10.5" fill="#101010">+ puede(permiso)</text><text x="1287" y="274" font-size="10.5" fill="#101010">+ cortarAcceso()</text><rect x="1280" y="400" width="245" height="128" fill="#F3E8FF" stroke="#000000" stroke-width="1.4"/><line x1="1280" y1="422" x2="1525" y2="422" stroke="#000000" stroke-width="1.2"/><text x="1402.5" y="415.2" font-size="12.0" fill="#101010" font-weight="bold" text-anchor="middle">Role</text><text x="1287" y="436" font-size="10.5" fill="#101010">- id : UUID</text><text x="1287" y="451" font-size="10.5" fill="#101010">- name : String «único»</text><text x="1287" y="466" font-size="10.5" fill="#101010">- sistema : Boolean</text><text x="1287" y="481" font-size="10.5" fill="#101010">- exigeAmbito : Boolean</text><text x="1287" y="496" font-size="10.5" fill="#101010">- trenes : String[]</text><line x1="1280" y1="505" x2="1525" y2="505" stroke="#000000" stroke-width="1.2"/><text x="1287" y="519" font-size="10.5" fill="#101010">+ permisos() : Permission[]</text><rect x="1280" y="620" width="245" height="75" fill="#F3E8FF" stroke="#000000" stroke-width="1.4"/><line x1="1280" y1="642" x2="1525" y2="642" stroke="#000000" stroke-width="1.2"/><text x="1402.5" y="635.2" font-size="12.0" fill="#101010" font-weight="bold" text-anchor="middle">Permission</text><text x="1287" y="656" font-size="10.5" fill="#101010">- id : UUID</text><text x="1287" y="671" font-size="10.5" fill="#101010">- code : String «p.ej. wo.approve»</text><text x="1287" y="686" font-size="10.5" fill="#101010">- descripcion : String</text><rect x="40" y="430" width="235" height="128" fill="#FFF9D6" stroke="#000000" stroke-width="1.4"/><line x1="40" y1="452" x2="275" y2="452" stroke="#000000" stroke-width="1.2"/><text x="157.5" y="445.2" font-size="12.0" fill="#101010" font-weight="bold" text-anchor="middle">PreventivePlan</text><text x="47" y="466" font-size="10.5" fill="#101010">- id : UUID</text><text x="47" y="481" font-size="10.5" fill="#101010">- assetId : FK → Asset</text><text x="47" y="496" font-size="10.5" fill="#101010">- intervaloDias : Int</text><text x="47" y="511" font-size="10.5" fill="#101010">- proximaFecha : Date</text><text x="47" y="526" font-size="10.5" fill="#101010">- activo : Boolean</text><line x1="40" y1="535" x2="275" y2="535" stroke="#000000" stroke-width="1.2"/><text x="47" y="549" font-size="10.5" fill="#101010">+ generarOM()</text><rect x="330" y="430" width="255" height="128" fill="#FFF9D6" stroke="#000000" stroke-width="1.4"/><line x1="330" y1="452" x2="585" y2="452" stroke="#000000" stroke-width="1.2"/><text x="457.5" y="445.2" font-size="12.0" fill="#101010" font-weight="bold" text-anchor="middle">HojaDeRuta</text><text x="337" y="466" font-size="10.5" fill="#101010">- id : UUID</text><text x="337" y="481" font-size="10.5" fill="#101010">- tipoEquipo : AssetType «único»</text><text x="337" y="496" font-size="10.5" fill="#101010">- pasos : PasoHojaRuta[]</text><text x="337" y="511" font-size="10.5" fill="#101010">- frecuenciaDias : Int?</text><line x1="330" y1="520" x2="585" y2="520" stroke="#000000" stroke-width="1.2"/><text x="337" y="534" font-size="10.5" fill="#101010">+ exportarSAP()</text><text x="337" y="549" font-size="10.5" fill="#101010">+ renumerar()</text><rect x="640" y="430" width="255" height="188" fill="#FFF0E6" stroke="#000000" stroke-width="1.4"/><line x1="640" y1="452" x2="895" y2="452" stroke="#000000" stroke-width="1.2"/><text x="767.5" y="445.2" font-size="12.0" fill="#101010" font-weight="bold" text-anchor="middle">FailureEvent</text><text x="647" y="466" font-size="10.5" fill="#101010">- id : UUID</text><text x="647" y="481" font-size="10.5" fill="#101010">- assetId : FK → Asset</text><text x="647" y="496" font-size="10.5" fill="#101010">- occurredAt : DateTime</text><text x="647" y="511" font-size="10.5" fill="#101010">- detectedAt : DateTime</text><text x="647" y="526" font-size="10.5" fill="#101010">- repairStartedAt : DateTime?</text><text x="647" y="541" font-size="10.5" fill="#101010">- restoredAt : DateTime?</text><text x="647" y="556" font-size="10.5" fill="#101010">- ocurrioEsEstimado : Boolean</text><line x1="640" y1="565" x2="895" y2="565" stroke="#000000" stroke-width="1.2"/><text x="647" y="579" font-size="10.5" fill="#101010">+ deteccion()</text><text x="647" y="594" font-size="10.5" fill="#101010">+ organizacion()</text><text x="647" y="609" font-size="10.5" fill="#101010">+ reparacion()</text><rect x="640" y="720" width="255" height="105" fill="#FFFBE8" stroke="#000000" stroke-width="1.4"/><line x1="640" y1="742" x2="895" y2="742" stroke="#000000" stroke-width="1.2"/><text x="767.5" y="735.2" font-size="12.0" fill="#101010" font-weight="bold" text-anchor="middle">StockMovement</text><text x="647" y="756" font-size="10.5" fill="#101010">- id : UUID</text><text x="647" y="771" font-size="10.5" fill="#101010">- spareId : FK → Spare</text><text x="647" y="786" font-size="10.5" fill="#101010">- workOrderId : FK → WorkOrder?</text><text x="647" y="801" font-size="10.5" fill="#101010">- cantidad : Decimal</text><text x="647" y="816" font-size="10.5" fill="#101010">- tipo : ENTRADA | SALIDA</text><rect x="330" y="720" width="255" height="105" fill="#F2F2F2" stroke="#000000" stroke-width="1.4"/><line x1="330" y1="742" x2="585" y2="742" stroke="#000000" stroke-width="1.2"/><text x="457.5" y="735.2" font-size="12.0" fill="#101010" font-weight="bold" text-anchor="middle">AuditLog</text><text x="337" y="756" font-size="10.5" fill="#101010">- id : UUID</text><text x="337" y="771" font-size="10.5" fill="#101010">- userId : FK → User</text><text x="337" y="786" font-size="10.5" fill="#101010">- accion / recurso / recursoId</text><text x="337" y="801" font-size="10.5" fill="#101010">- origen : String «copiado, no enlazado»</text><text x="337" y="816" font-size="10.5" fill="#101010">- creadoEn : DateTime</text><line x1="275" y1="196.5" x2="330" y2="211.5" stroke="#000000" stroke-width="1.3" marker-end="url(#ap)"/><rect x="287.1" y="196.0" width="30.8" height="14" fill="#FFFFFF"/><text x="302.5" y="207.0" font-size="9.5" text-anchor="middle" fill="#101010">1..*</text><line x1="585" y1="211.5" x2="640" y2="219.0" stroke="#000000" stroke-width="1.3" marker-end="url(#ap)"/><rect x="597.1" y="207.25" width="30.8" height="14" fill="#FFFFFF"/><text x="612.5" y="218.25" font-size="9.5" text-anchor="middle" fill="#101010">1..*</text><line x1="895" y1="219.0" x2="950" y2="234.0" stroke="#000000" stroke-width="1.3" marker-end="url(#ap)"/><rect x="907.1" y="218.5" width="30.8" height="14" fill="#FFFFFF"/><text x="922.5" y="229.5" font-size="9.5" text-anchor="middle" fill="#101010">0..*</text><line x1="1220" y1="234.0" x2="1280" y2="196.5" stroke="#000000" stroke-width="1.3" marker-end="url(#ap)"/><rect x="1216.0" y="207.25" width="68.0" height="14" fill="#FFFFFF"/><text x="1250.0" y="218.25" font-size="9.5" text-anchor="middle" fill="#101010">asignada a</text><line x1="1085.0" y1="358" x2="1085.0" y2="520" stroke="#000000" stroke-width="1.3" marker-end="url(#ap)"/><line x1="1402.5" y1="283" x2="1402.5" y2="400" stroke="#000000" stroke-width="1.3" marker-end="url(#ap)"/><line x1="1402.5" y1="528" x2="1402.5" y2="620" stroke="#000000" stroke-width="1.3" marker-end="url(#ap)"/><rect x="1387.1" y="566.0" width="30.8" height="14" fill="#FFFFFF"/><text x="1402.5" y="577.0" font-size="9.5" text-anchor="middle" fill="#101010">1..*</text><line x1="330" y1="211.5" x2="275" y2="494.0" stroke="#000000" stroke-width="1.3" marker-end="url(#ap)"/><line x1="275" y1="472" x2="330" y2="472" stroke="#000000" stroke-width="1.3" marker-end="url(#ap)"/><rect x="296.4" y="464.0" width="12.2" height="14" fill="#FFFFFF"/><text x="302.5" y="475.0" font-size="9.5" text-anchor="middle" fill="#101010">1</text><line x1="447.5" y1="260" x2="447.5" y2="430" stroke="#000000" stroke-width="1.3" marker-end="url(#ap)"/><rect x="432.1" y="337.0" width="30.8" height="14" fill="#FFFFFF"/><text x="447.5" y="348.0" font-size="9.5" text-anchor="middle" fill="#101010">tipo</text><line x1="767" y1="340" x2="767" y2="430" stroke="#000000" stroke-width="1.3" marker-end="url(#ap)"/><rect x="751.6" y="377.0" width="30.8" height="14" fill="#FFFFFF"/><text x="767.0" y="388.0" font-size="9.5" text-anchor="middle" fill="#101010">1..*</text><line x1="767" y1="650" x2="767" y2="720" stroke="#000000" stroke-width="1.3" marker-end="url(#ap)"/><line x1="895" y1="745" x2="925" y2="745" stroke="#000000" stroke-width="1.3"/><line x1="925" y1="745" x2="925" y2="395" stroke="#000000" stroke-width="1.3"/><line x1="925" y1="395" x2="950" y2="368" stroke="#000000" stroke-width="1.3" marker-end="url(#ap)"/><rect x="922.1" y="373.5" width="30.8" height="14" fill="#FFFFFF"/><text x="937.5" y="384.5" font-size="9.5" text-anchor="middle" fill="#101010">0..1</text><path d="M40,700 L250,700 L262,712 L262,790 L40,790 z" fill="#FFFFF0" stroke="#000000" stroke-width="1.2"/><path d="M250,700 L250,712 L262,712" fill="none" stroke="#000000" stroke-width="1.2"/><text x="150" y="731.4" font-size="9.2" fill="#101010" font-weight="normal" text-anchor="middle" font-style="italic">«nota» AuditLog es TRANSVERSAL: el</text><text x="150" y="742.6" font-size="9.2" fill="#101010" font-weight="normal" text-anchor="middle" font-style="italic">interceptor global registra toda</text><text x="150" y="753.8" font-size="9.2" fill="#101010" font-weight="normal" text-anchor="middle" font-style="italic">escritura sobre cualquier entidad, con</text><text x="150" y="765.1" font-size="9.2" fill="#101010" font-weight="normal" text-anchor="middle" font-style="italic">usuario, hora y origen.</text><line x1="262" y1="752" x2="330" y2="752" stroke="#000000" stroke-width="1.3" stroke-dasharray="6,4"/><text x="780.0" y="945.7" font-size="10.5" fill="#5A6570" font-weight="normal" text-anchor="middle">Notación UML 2.5 (StarUML) — clases con atributos y operaciones, asociaciones dirigidas y multiplicidad.</text></svg>